<?xml version="1.0" encoding="UTF-8"?>
<svg width="32" height="32" viewBox="0 0 32 32" xmlns="http://www.w3.org/2000/svg">
  <path d="M22.5 8c-2.7 0-5.2 1.2-7 3.1C13.7 9.2 11.2 8 8.5 8c-4.7 0-8.5 3.8-8.5 8.5s3.8 8.5 8.5 8.5c2.7 0 5.2-1.2 7-3.1 1.8 1.9 4.3 3.1 7 3.1 4.7 0 8.5-3.8 8.5-8.5S27.2 8 22.5 8zM8.5 22c-3 0-5.5-2.5-5.5-5.5S5.5 11 8.5 11c1.9 0 3.6 1 4.6 2.5l-4.6 4.6c-.4.4-.4 1 0 1.4.2.2.5.3.7.3s.5-.1.7-.3l4.6-4.6c.2 1.1.3 2.2.3 3.3C14.8 20.2 11.9 22 8.5 22zm14 0c-1.9 0-3.6-1-4.6-2.5l4.6-4.6c.4-.4.4-1 0-1.4-.4-.4-1-.4-1.4 0l-4.6 4.6c-.2-1.1-.3-2.2-.3-3.3 0-2.1 2.9-3.9 6.3-3.9 3 0 5.5 2.5 5.5 5.5S25.5 22 22.5 22z" fill="#2563eb"/>
</svg>
